<svg xmlns="http://www.w3.org/2000/svg" xmlns:xlink="http://www.w3.org/1999/xlink" width="960" zoomAndPan="magnify" viewBox="0 0 720 143.999998" height="192" preserveAspectRatio="xMidYMid meet" version="1.0"><defs><g/><clipPath id="ef1bcd8693"><path d="M 147.890625 19.03125 L 159.59375 19.03125 L 159.59375 115.871094 L 147.890625 115.871094 Z M 147.890625 19.03125 " clip-rule="nonzero"/></clipPath><clipPath id="0e5ab22606"><path d="M 153.742188 19.03125 C 156.972656 19.03125 159.59375 21.652344 159.59375 24.882812 L 159.59375 109.992188 C 159.59375 113.226562 156.972656 115.84375 153.742188 115.84375 C 150.507812 115.84375 147.890625 113.226562 147.890625 109.992188 L 147.890625 24.882812 C 147.890625 21.652344 150.507812 19.03125 153.742188 19.03125 Z M 153.742188 19.03125 " clip-rule="nonzero"/></clipPath></defs><g clip-path="url(#ef1bcd8693)"><g clip-path="url(#0e5ab22606)"><path fill="#57ebb9" d="M 147.890625 19.03125 L 159.59375 19.03125 L 159.59375 115.828125 L 147.890625 115.828125 Z M 147.890625 19.03125 " fill-opacity="1" fill-rule="nonzero"/></g></g><g fill="#181c31" fill-opacity="1"><g transform="translate(170.127344, 63.974916)"><g><path d="M 14.109375 11.546875 C 9.617188 11.546875 6.304688 10.882812 4.171875 9.5625 C 2.035156 8.25 0.96875 6.414062 0.96875 4.0625 C 0.96875 2.632812 1.421875 1.460938 2.328125 0.546875 C 3.242188 -0.359375 4.554688 -0.96875 6.265625 -1.28125 L 6.265625 -1.796875 C 5.335938 -2.359375 4.671875 -2.976562 4.265625 -3.65625 C 3.867188 -4.34375 3.671875 -5.140625 3.671875 -6.046875 C 3.671875 -8.234375 5.09375 -9.703125 7.9375 -10.453125 L 7.9375 -10.96875 C 6.476562 -11.8125 5.378906 -12.851562 4.640625 -14.09375 C 3.898438 -15.332031 3.53125 -16.832031 3.53125 -18.59375 C 3.53125 -20.40625 3.941406 -21.992188 4.765625 -23.359375 C 5.597656 -24.734375 6.816406 -25.800781 8.421875 -26.5625 C 10.023438 -27.332031 11.941406 -27.71875 14.171875 -27.71875 C 16.441406 -27.71875 18.253906 -27.320312 19.609375 -26.53125 C 20.441406 -27.75 20.925781 -29.15625 21.0625 -30.75 L 21.578125 -31.0625 L 26.484375 -29.859375 C 26.335938 -28.554688 25.957031 -27.46875 25.34375 -26.59375 C 24.738281 -25.71875 23.796875 -24.929688 22.515625 -24.234375 L 22.515625 -23.703125 C 24.046875 -22.347656 24.8125 -20.460938 24.8125 -18.046875 C 24.8125 -16.367188 24.390625 -14.863281 23.546875 -13.53125 C 22.710938 -12.207031 21.492188 -11.15625 19.890625 -10.375 C 18.285156 -9.601562 16.378906 -9.21875 14.171875 -9.21875 L 13.140625 -9.25 C 12.484375 -9.28125 12.023438 -9.296875 11.765625 -9.296875 C 11.140625 -9.296875 10.648438 -9.125 10.296875 -8.78125 C 9.941406 -8.445312 9.765625 -8.019531 9.765625 -7.5 C 9.765625 -6.925781 9.992188 -6.476562 10.453125 -6.15625 C 10.910156 -5.832031 11.585938 -5.65625 12.484375 -5.625 L 18.5625 -5.40625 C 24.582031 -5.21875 27.59375 -2.625 27.59375 2.375 C 27.59375 4.125 27.144531 5.6875 26.25 7.0625 C 25.351562 8.4375 23.898438 9.523438 21.890625 10.328125 C 19.890625 11.140625 17.296875 11.546875 14.109375 11.546875 Z M 14.171875 -14 C 15.492188 -14 16.523438 -14.382812 17.265625 -15.15625 C 18.003906 -15.9375 18.375 -17.039062 18.375 -18.46875 C 18.375 -19.894531 18.003906 -20.988281 17.265625 -21.75 C 16.523438 -22.519531 15.492188 -22.90625 14.171875 -22.90625 C 12.847656 -22.90625 11.820312 -22.519531 11.09375 -21.75 C 10.375 -20.988281 10.015625 -19.894531 10.015625 -18.46875 C 10.015625 -17.019531 10.375 -15.910156 11.09375 -15.140625 C 11.820312 -14.378906 12.847656 -14 14.171875 -14 Z M 14.109375 6.578125 C 16.441406 6.578125 18.132812 6.25 19.1875 5.59375 C 20.25 4.9375 20.78125 4.082031 20.78125 3.03125 C 20.78125 2.175781 20.507812 1.546875 19.96875 1.140625 C 19.425781 0.742188 18.566406 0.53125 17.390625 0.5 L 12.015625 0.25 C 11.828125 0.25 11.65625 0.238281 11.5 0.21875 C 11.34375 0.207031 11.191406 0.203125 11.046875 0.203125 C 9.898438 0.203125 9.023438 0.445312 8.421875 0.9375 C 7.816406 1.425781 7.515625 2.109375 7.515625 2.984375 C 7.515625 4.128906 8.066406 5.015625 9.171875 5.640625 C 10.273438 6.265625 11.921875 6.578125 14.109375 6.578125 Z M 14.109375 6.578125 "/></g></g></g><g fill="#181c31" fill-opacity="1"><g transform="translate(199.973602, 63.974916)"><g><path d="M 26.875 -12.0625 L 9.390625 -12.0625 C 9.585938 -9.6875 10.257812 -7.960938 11.40625 -6.890625 C 12.5625 -5.816406 14.132812 -5.28125 16.125 -5.28125 C 17.6875 -5.28125 18.953125 -5.570312 19.921875 -6.15625 C 20.890625 -6.738281 21.671875 -7.617188 22.265625 -8.796875 L 22.78125 -8.796875 L 27.328125 -5.890625 C 26.429688 -3.984375 25.085938 -2.4375 23.296875 -1.25 C 21.503906 -0.0703125 19.113281 0.515625 16.125 0.515625 C 13.3125 0.515625 10.878906 -0.015625 8.828125 -1.078125 C 6.785156 -2.148438 5.207031 -3.742188 4.09375 -5.859375 C 2.988281 -7.972656 2.4375 -10.550781 2.4375 -13.59375 C 2.4375 -16.675781 3.019531 -19.273438 4.1875 -21.390625 C 5.351562 -23.515625 6.929688 -25.097656 8.921875 -26.140625 C 10.910156 -27.191406 13.148438 -27.71875 15.640625 -27.71875 C 19.484375 -27.71875 22.425781 -26.695312 24.46875 -24.65625 C 26.519531 -22.613281 27.546875 -19.625 27.546875 -15.6875 C 27.546875 -14.25 27.492188 -13.140625 27.390625 -12.359375 Z M 21.015625 -16.46875 C 20.941406 -18.539062 20.457031 -20.050781 19.5625 -21 C 18.664062 -21.945312 17.359375 -22.421875 15.640625 -22.421875 C 12.179688 -22.421875 10.148438 -20.4375 9.546875 -16.46875 Z M 21.015625 -16.46875 "/></g></g></g><g fill="#181c31" fill-opacity="1"><g transform="translate(231.101988, 63.974916)"><g><path d="M 3.921875 0 L 3.921875 -27.203125 L 10.484375 -27.203125 L 10.484375 -23.203125 L 11 -23.078125 C 12.6875 -26.171875 15.429688 -27.71875 19.234375 -27.71875 C 22.367188 -27.71875 24.671875 -26.863281 26.140625 -25.15625 C 27.617188 -23.445312 28.359375 -20.957031 28.359375 -17.6875 L 28.359375 0 L 21.53125 0 L 21.53125 -16.84375 C 21.53125 -18.644531 21.164062 -19.945312 20.4375 -20.75 C 19.71875 -21.550781 18.5625 -21.953125 16.96875 -21.953125 C 15.007812 -21.953125 13.484375 -21.316406 12.390625 -20.046875 C 11.296875 -18.785156 10.75 -16.796875 10.75 -14.078125 L 10.75 0 Z M 3.921875 0 "/></g></g></g><g fill="#181c31" fill-opacity="1"><g transform="translate(264.523404, 63.974916)"><g><path d="M 12.71875 0.515625 C 10.863281 0.515625 9.160156 0.296875 7.609375 -0.140625 C 6.066406 -0.578125 4.75 -1.175781 3.65625 -1.9375 C 2.5625 -2.695312 1.753906 -3.570312 1.234375 -4.5625 L 5.03125 -8.65625 L 5.546875 -8.65625 C 6.453125 -7.4375 7.519531 -6.519531 8.75 -5.90625 C 9.988281 -5.300781 11.328125 -5 12.765625 -5 C 14.097656 -5 15.101562 -5.238281 15.78125 -5.71875 C 16.457031 -6.195312 16.796875 -6.878906 16.796875 -7.765625 C 16.796875 -8.453125 16.550781 -9.03125 16.0625 -9.5 C 15.582031 -9.96875 14.796875 -10.335938 13.703125 -10.609375 L 10.109375 -11.46875 C 7.410156 -12.101562 5.441406 -13.082031 4.203125 -14.40625 C 2.960938 -15.726562 2.34375 -17.410156 2.34375 -19.453125 C 2.34375 -21.148438 2.773438 -22.625 3.640625 -23.875 C 4.503906 -25.125 5.71875 -26.078125 7.28125 -26.734375 C 8.851562 -27.390625 10.679688 -27.71875 12.765625 -27.71875 C 15.222656 -27.71875 17.253906 -27.363281 18.859375 -26.65625 C 20.472656 -25.945312 21.734375 -25 22.640625 -23.8125 L 18.984375 -19.875 L 18.5 -19.875 C 17.738281 -20.726562 16.882812 -21.351562 15.9375 -21.75 C 15 -22.144531 13.941406 -22.34375 12.765625 -22.34375 C 10.078125 -22.34375 8.734375 -21.503906 8.734375 -19.828125 C 8.734375 -19.117188 8.984375 -18.539062 9.484375 -18.09375 C 9.984375 -17.65625 10.863281 -17.296875 12.125 -17.015625 L 15.484375 -16.28125 C 18.242188 -15.6875 20.257812 -14.734375 21.53125 -13.421875 C 22.8125 -12.117188 23.453125 -10.363281 23.453125 -8.15625 C 23.453125 -6.4375 23.023438 -4.914062 22.171875 -3.59375 C 21.316406 -2.28125 20.082031 -1.265625 18.46875 -0.546875 C 16.851562 0.160156 14.9375 0.515625 12.71875 0.515625 Z M 12.71875 0.515625 "/></g></g></g><g fill="#181c31" fill-opacity="1"><g transform="translate(291.164343, 63.974916)"><g><path d="M 3.921875 11.015625 L 3.921875 -27.203125 L 10.75 -27.203125 L 10.75 -23.640625 L 11.265625 -23.546875 C 12.078125 -24.929688 13.15625 -25.972656 14.5 -26.671875 C 15.84375 -27.367188 17.421875 -27.71875 19.234375 -27.71875 C 21.421875 -27.71875 23.332031 -27.195312 24.96875 -26.15625 C 26.601562 -25.125 27.875 -23.550781 28.78125 -21.4375 C 29.695312 -19.320312 30.15625 -16.707031 30.15625 -13.59375 C 30.15625 -10.476562 29.671875 -7.867188 28.703125 -5.765625 C 27.742188 -3.660156 26.410156 -2.085938 24.703125 -1.046875 C 22.992188 -0.00390625 21.023438 0.515625 18.796875 0.515625 C 17.097656 0.515625 15.628906 0.234375 14.390625 -0.328125 C 13.160156 -0.898438 12.117188 -1.785156 11.265625 -2.984375 L 10.75 -2.890625 L 10.75 11.015625 Z M 16.890625 -5.28125 C 18.929688 -5.28125 20.476562 -5.941406 21.53125 -7.265625 C 22.582031 -8.597656 23.109375 -10.707031 23.109375 -13.59375 C 23.109375 -16.46875 22.582031 -18.570312 21.53125 -19.90625 C 20.476562 -21.25 18.929688 -21.921875 16.890625 -21.921875 C 14.984375 -21.921875 13.46875 -21.226562 12.34375 -19.84375 C 11.226562 -18.46875 10.671875 -16.382812 10.671875 -13.59375 C 10.671875 -10.8125 11.226562 -8.726562 12.34375 -7.34375 C 13.46875 -5.96875 14.984375 -5.28125 16.890625 -5.28125 Z M 16.890625 -5.28125 "/></g></g></g><g fill="#006bff" fill-opacity="1"><g transform="translate(325.307023, 63.974916)"><g><path d="M 10.609375 0.515625 C 8.859375 0.515625 7.34375 0.195312 6.0625 -0.4375 C 4.78125 -1.082031 3.796875 -2.023438 3.109375 -3.265625 C 2.421875 -4.503906 2.078125 -6 2.078125 -7.75 C 2.078125 -9.351562 2.421875 -10.703125 3.109375 -11.796875 C 3.796875 -12.890625 4.863281 -13.785156 6.3125 -14.484375 C 7.757812 -15.179688 9.648438 -15.722656 11.984375 -16.109375 C 13.609375 -16.367188 14.84375 -16.65625 15.6875 -16.96875 C 16.539062 -17.28125 17.113281 -17.628906 17.40625 -18.015625 C 17.707031 -18.410156 17.859375 -18.914062 17.859375 -19.53125 C 17.859375 -20.40625 17.550781 -21.070312 16.9375 -21.53125 C 16.332031 -21.988281 15.320312 -22.21875 13.90625 -22.21875 C 12.394531 -22.21875 10.957031 -21.878906 9.59375 -21.203125 C 8.226562 -20.523438 7.046875 -19.640625 6.046875 -18.546875 L 5.546875 -18.546875 L 2.6875 -22.859375 C 4.070312 -24.390625 5.753906 -25.582031 7.734375 -26.4375 C 9.722656 -27.289062 11.894531 -27.71875 14.25 -27.71875 C 17.851562 -27.71875 20.457031 -26.953125 22.0625 -25.421875 C 23.675781 -23.890625 24.484375 -21.71875 24.484375 -18.90625 L 24.484375 -7.109375 C 24.484375 -5.890625 25.019531 -5.28125 26.09375 -5.28125 C 26.5 -5.28125 26.898438 -5.351562 27.296875 -5.5 L 27.640625 -5.40625 L 28.140625 -0.640625 C 27.753906 -0.390625 27.222656 -0.1875 26.546875 -0.03125 C 25.878906 0.125 25.144531 0.203125 24.34375 0.203125 C 22.707031 0.203125 21.429688 -0.109375 20.515625 -0.734375 C 19.609375 -1.359375 18.957031 -2.335938 18.5625 -3.671875 L 18.046875 -3.71875 C 16.710938 -0.894531 14.234375 0.515625 10.609375 0.515625 Z M 12.765625 -4.59375 C 14.347656 -4.59375 15.609375 -5.117188 16.546875 -6.171875 C 17.492188 -7.234375 17.96875 -8.710938 17.96875 -10.609375 L 17.96875 -13.359375 L 17.5 -13.46875 C 17.09375 -13.132812 16.554688 -12.851562 15.890625 -12.625 C 15.222656 -12.40625 14.265625 -12.191406 13.015625 -11.984375 C 11.535156 -11.734375 10.472656 -11.304688 9.828125 -10.703125 C 9.179688 -10.109375 8.859375 -9.257812 8.859375 -8.15625 C 8.859375 -6.988281 9.203125 -6.101562 9.890625 -5.5 C 10.578125 -4.894531 11.535156 -4.59375 12.765625 -4.59375 Z M 12.765625 -4.59375 "/></g></g></g><g fill="#006bff" fill-opacity="1"><g transform="translate(355.547781, 63.974916)"><g><path d="M 15.859375 0.515625 C 13.222656 0.515625 10.894531 -0.03125 8.875 -1.125 C 6.851562 -2.21875 5.273438 -3.820312 4.140625 -5.9375 C 3.003906 -8.0625 2.4375 -10.613281 2.4375 -13.59375 C 2.4375 -16.582031 3.003906 -19.132812 4.140625 -21.25 C 5.273438 -23.375 6.84375 -24.984375 8.84375 -26.078125 C 10.851562 -27.171875 13.148438 -27.71875 15.734375 -27.71875 C 21.472656 -27.71875 25.144531 -25.640625 26.75 -21.484375 L 22.0625 -18.125 L 21.546875 -18.125 C 20.992188 -19.40625 20.269531 -20.359375 19.375 -20.984375 C 18.476562 -21.609375 17.265625 -21.921875 15.734375 -21.921875 C 13.753906 -21.921875 12.210938 -21.238281 11.109375 -19.875 C 10.015625 -18.507812 9.46875 -16.414062 9.46875 -13.59375 C 9.46875 -10.789062 10.023438 -8.703125 11.140625 -7.328125 C 12.265625 -5.960938 13.835938 -5.28125 15.859375 -5.28125 C 17.335938 -5.28125 18.585938 -5.675781 19.609375 -6.46875 C 20.640625 -7.269531 21.378906 -8.414062 21.828125 -9.90625 L 22.34375 -9.96875 L 27.203125 -7.296875 C 26.503906 -4.992188 25.222656 -3.113281 23.359375 -1.65625 C 21.492188 -0.207031 18.992188 0.515625 15.859375 0.515625 Z M 15.859375 0.515625 "/></g></g></g><g fill="#006bff" fill-opacity="1"><g transform="translate(385.147477, 63.974916)"><g><path d="M 26.875 -12.0625 L 9.390625 -12.0625 C 9.585938 -9.6875 10.257812 -7.960938 11.40625 -6.890625 C 12.5625 -5.816406 14.132812 -5.28125 16.125 -5.28125 C 17.6875 -5.28125 18.953125 -5.570312 19.921875 -6.15625 C 20.890625 -6.738281 21.671875 -7.617188 22.265625 -8.796875 L 22.78125 -8.796875 L 27.328125 -5.890625 C 26.429688 -3.984375 25.085938 -2.4375 23.296875 -1.25 C 21.503906 -0.0703125 19.113281 0.515625 16.125 0.515625 C 13.3125 0.515625 10.878906 -0.015625 8.828125 -1.078125 C 6.785156 -2.148438 5.207031 -3.742188 4.09375 -5.859375 C 2.988281 -7.972656 2.4375 -10.550781 2.4375 -13.59375 C 2.4375 -16.675781 3.019531 -19.273438 4.1875 -21.390625 C 5.351562 -23.515625 6.929688 -25.097656 8.921875 -26.140625 C 10.910156 -27.191406 13.148438 -27.71875 15.640625 -27.71875 C 19.484375 -27.71875 22.425781 -26.695312 24.46875 -24.65625 C 26.519531 -22.613281 27.546875 -19.625 27.546875 -15.6875 C 27.546875 -14.25 27.492188 -13.140625 27.390625 -12.359375 Z M 21.015625 -16.46875 C 20.941406 -18.539062 20.457031 -20.050781 19.5625 -21 C 18.664062 -21.945312 17.359375 -22.421875 15.640625 -22.421875 C 12.179688 -22.421875 10.148438 -20.4375 9.546875 -16.46875 Z M 21.015625 -16.46875 "/></g></g></g><g fill="#181c31" fill-opacity="1"><g transform="translate(170.127344, 108.974913)"><g><path d="M 18.765625 -6.484375 L 20.546875 -1.4375 C 19.804688 -0.820312 18.875 -0.34375 17.75 0 C 16.632812 0.34375 15.367188 0.515625 13.953125 0.515625 C 11.015625 0.515625 8.78125 -0.285156 7.25 -1.890625 C 5.71875 -3.492188 4.953125 -5.820312 4.953125 -8.875 L 4.953125 -21.796875 L 0.8125 -21.796875 L 0.8125 -27.21875 L 4.953125 -27.21875 L 4.953125 -32.53125 L 11.78125 -33.640625 L 11.78125 -27.21875 L 19.5 -27.21875 L 19.5 -21.796875 L 11.78125 -21.796875 L 11.78125 -9.375 C 11.78125 -8.019531 12.0625 -7.035156 12.625 -6.421875 C 13.1875 -5.804688 14 -5.5 15.0625 -5.5 C 16.28125 -5.5 17.34375 -5.828125 18.25 -6.484375 Z M 18.765625 -6.484375 "/></g></g></g><g fill="#181c31" fill-opacity="1"><g transform="translate(192.823277, 108.974913)"><g><path d="M 26.875 -12.0625 L 9.390625 -12.0625 C 9.585938 -9.6875 10.257812 -7.960938 11.40625 -6.890625 C 12.5625 -5.816406 14.132812 -5.28125 16.125 -5.28125 C 17.6875 -5.28125 18.953125 -5.570312 19.921875 -6.15625 C 20.890625 -6.738281 21.671875 -7.617188 22.265625 -8.796875 L 22.78125 -8.796875 L 27.328125 -5.890625 C 26.429688 -3.984375 25.085938 -2.4375 23.296875 -1.25 C 21.503906 -0.0703125 19.113281 0.515625 16.125 0.515625 C 13.3125 0.515625 10.878906 -0.015625 8.828125 -1.078125 C 6.785156 -2.148438 5.207031 -3.742188 4.09375 -5.859375 C 2.988281 -7.972656 2.4375 -10.550781 2.4375 -13.59375 C 2.4375 -16.675781 3.019531 -19.273438 4.1875 -21.390625 C 5.351562 -23.515625 6.929688 -25.097656 8.921875 -26.140625 C 10.910156 -27.191406 13.148438 -27.71875 15.640625 -27.71875 C 19.484375 -27.71875 22.425781 -26.695312 24.46875 -24.65625 C 26.519531 -22.613281 27.546875 -19.625 27.546875 -15.6875 C 27.546875 -14.25 27.492188 -13.140625 27.390625 -12.359375 Z M 21.015625 -16.46875 C 20.941406 -18.539062 20.457031 -20.050781 19.5625 -21 C 18.664062 -21.945312 17.359375 -22.421875 15.640625 -22.421875 C 12.179688 -22.421875 10.148438 -20.4375 9.546875 -16.46875 Z M 21.015625 -16.46875 "/></g></g></g><g fill="#181c31" fill-opacity="1"><g transform="translate(223.951663, 108.974913)"><g><path d="M 15.859375 0.515625 C 13.222656 0.515625 10.894531 -0.03125 8.875 -1.125 C 6.851562 -2.21875 5.273438 -3.820312 4.140625 -5.9375 C 3.003906 -8.0625 2.4375 -10.613281 2.4375 -13.59375 C 2.4375 -16.582031 3.003906 -19.132812 4.140625 -21.25 C 5.273438 -23.375 6.84375 -24.984375 8.84375 -26.078125 C 10.851562 -27.171875 13.148438 -27.71875 15.734375 -27.71875 C 21.472656 -27.71875 25.144531 -25.640625 26.75 -21.484375 L 22.0625 -18.125 L 21.546875 -18.125 C 20.992188 -19.40625 20.269531 -20.359375 19.375 -20.984375 C 18.476562 -21.609375 17.265625 -21.921875 15.734375 -21.921875 C 13.753906 -21.921875 12.210938 -21.238281 11.109375 -19.875 C 10.015625 -18.507812 9.46875 -16.414062 9.46875 -13.59375 C 9.46875 -10.789062 10.023438 -8.703125 11.140625 -7.328125 C 12.265625 -5.960938 13.835938 -5.28125 15.859375 -5.28125 C 17.335938 -5.28125 18.585938 -5.675781 19.609375 -6.46875 C 20.640625 -7.269531 21.378906 -8.414062 21.828125 -9.90625 L 22.34375 -9.96875 L 27.203125 -7.296875 C 26.503906 -4.992188 25.222656 -3.113281 23.359375 -1.65625 C 21.492188 -0.207031 18.992188 0.515625 15.859375 0.515625 Z M 15.859375 0.515625 "/></g></g></g><g fill="#181c31" fill-opacity="1"><g transform="translate(253.551359, 108.974913)"><g><path d="M 3.921875 0 L 3.921875 -38.125 L 10.75 -38.125 L 10.75 -23.640625 L 11.265625 -23.546875 C 12.171875 -24.878906 13.28125 -25.90625 14.59375 -26.625 C 15.914062 -27.351562 17.503906 -27.71875 19.359375 -27.71875 C 25.359375 -27.71875 28.359375 -24.3125 28.359375 -17.5 L 28.359375 0 L 21.53125 0 L 21.53125 -16.640625 C 21.53125 -18.503906 21.160156 -19.851562 20.421875 -20.6875 C 19.679688 -21.53125 18.53125 -21.953125 16.96875 -21.953125 C 15.0625 -21.953125 13.546875 -21.3125 12.421875 -20.03125 C 11.304688 -18.757812 10.75 -16.773438 10.75 -14.078125 L 10.75 0 Z M 3.921875 0 "/></g></g></g><g fill="#181c31" fill-opacity="1"><g transform="translate(286.972774, 108.974913)"><g><path d="M 3.921875 0 L 3.921875 -27.203125 L 10.484375 -27.203125 L 10.484375 -23.203125 L 11 -23.078125 C 12.6875 -26.171875 15.429688 -27.71875 19.234375 -27.71875 C 22.367188 -27.71875 24.671875 -26.863281 26.140625 -25.15625 C 27.617188 -23.445312 28.359375 -20.957031 28.359375 -17.6875 L 28.359375 0 L 21.53125 0 L 21.53125 -16.84375 C 21.53125 -18.644531 21.164062 -19.945312 20.4375 -20.75 C 19.71875 -21.550781 18.5625 -21.953125 16.96875 -21.953125 C 15.007812 -21.953125 13.484375 -21.316406 12.390625 -20.046875 C 11.296875 -18.785156 10.75 -16.796875 10.75 -14.078125 L 10.75 0 Z M 3.921875 0 "/></g></g></g><g fill="#181c31" fill-opacity="1"><g transform="translate(320.39419, 108.974913)"><g><path d="M 15.8125 0.515625 C 13.144531 0.515625 10.800781 -0.03125 8.78125 -1.125 C 6.769531 -2.21875 5.207031 -3.816406 4.09375 -5.921875 C 2.988281 -8.035156 2.4375 -10.59375 2.4375 -13.59375 C 2.4375 -16.582031 2.988281 -19.132812 4.09375 -21.25 C 5.207031 -23.375 6.769531 -24.984375 8.78125 -26.078125 C 10.800781 -27.171875 13.144531 -27.71875 15.8125 -27.71875 C 18.46875 -27.71875 20.800781 -27.171875 22.8125 -26.078125 C 24.832031 -24.984375 26.398438 -23.375 27.515625 -21.25 C 28.640625 -19.132812 29.203125 -16.582031 29.203125 -13.59375 C 29.203125 -10.59375 28.640625 -8.035156 27.515625 -5.921875 C 26.398438 -3.816406 24.832031 -2.21875 22.8125 -1.125 C 20.800781 -0.03125 18.46875 0.515625 15.8125 0.515625 Z M 15.8125 -5.28125 C 20.03125 -5.28125 22.140625 -8.050781 22.140625 -13.59375 C 22.140625 -16.46875 21.597656 -18.570312 20.515625 -19.90625 C 19.429688 -21.25 17.863281 -21.921875 15.8125 -21.921875 C 11.582031 -21.921875 9.46875 -19.144531 9.46875 -13.59375 C 9.46875 -8.050781 11.582031 -5.28125 15.8125 -5.28125 Z M 15.8125 -5.28125 "/></g></g></g><g fill="#181c31" fill-opacity="1"><g transform="translate(353.569042, 108.974913)"><g><path d="M 11.296875 0.515625 C 8.847656 0.515625 6.976562 -0.144531 5.6875 -1.46875 C 4.394531 -2.789062 3.75 -4.800781 3.75 -7.5 L 3.75 -38.125 L 10.578125 -38.125 L 10.578125 -7.765625 C 10.578125 -6.109375 11.269531 -5.28125 12.65625 -5.28125 C 13.039062 -5.28125 13.457031 -5.34375 13.90625 -5.46875 L 14.25 -5.375 L 14.875 -0.125 C 14.488281 0.0703125 13.984375 0.226562 13.359375 0.34375 C 12.734375 0.457031 12.046875 0.515625 11.296875 0.515625 Z M 11.296875 0.515625 "/></g></g></g><g fill="#181c31" fill-opacity="1"><g transform="translate(370.766615, 108.974913)"><g><path d="M 15.8125 0.515625 C 13.144531 0.515625 10.800781 -0.03125 8.78125 -1.125 C 6.769531 -2.21875 5.207031 -3.816406 4.09375 -5.921875 C 2.988281 -8.035156 2.4375 -10.59375 2.4375 -13.59375 C 2.4375 -16.582031 2.988281 -19.132812 4.09375 -21.25 C 5.207031 -23.375 6.769531 -24.984375 8.78125 -26.078125 C 10.800781 -27.171875 13.144531 -27.71875 15.8125 -27.71875 C 18.46875 -27.71875 20.800781 -27.171875 22.8125 -26.078125 C 24.832031 -24.984375 26.398438 -23.375 27.515625 -21.25 C 28.640625 -19.132812 29.203125 -16.582031 29.203125 -13.59375 C 29.203125 -10.59375 28.640625 -8.035156 27.515625 -5.921875 C 26.398438 -3.816406 24.832031 -2.21875 22.8125 -1.125 C 20.800781 -0.03125 18.46875 0.515625 15.8125 0.515625 Z M 15.8125 -5.28125 C 20.03125 -5.28125 22.140625 -8.050781 22.140625 -13.59375 C 22.140625 -16.46875 21.597656 -18.570312 20.515625 -19.90625 C 19.429688 -21.25 17.863281 -21.921875 15.8125 -21.921875 C 11.582031 -21.921875 9.46875 -19.144531 9.46875 -13.59375 C 9.46875 -8.050781 11.582031 -5.28125 15.8125 -5.28125 Z M 15.8125 -5.28125 "/></g></g></g><g fill="#181c31" fill-opacity="1"><g transform="translate(403.941479, 108.974913)"><g><path d="M 14.109375 11.546875 C 9.617188 11.546875 6.304688 10.882812 4.171875 9.5625 C 2.035156 8.25 0.96875 6.414062 0.96875 4.0625 C 0.96875 2.632812 1.421875 1.460938 2.328125 0.546875 C 3.242188 -0.359375 4.554688 -0.96875 6.265625 -1.28125 L 6.265625 -1.796875 C 5.335938 -2.359375 4.671875 -2.976562 4.265625 -3.65625 C 3.867188 -4.34375 3.671875 -5.140625 3.671875 -6.046875 C 3.671875 -8.234375 5.09375 -9.703125 7.9375 -10.453125 L 7.9375 -10.96875 C 6.476562 -11.8125 5.378906 -12.851562 4.640625 -14.09375 C 3.898438 -15.332031 3.53125 -16.832031 3.53125 -18.59375 C 3.53125 -20.40625 3.941406 -21.992188 4.765625 -23.359375 C 5.597656 -24.734375 6.816406 -25.800781 8.421875 -26.5625 C 10.023438 -27.332031 11.941406 -27.71875 14.171875 -27.71875 C 16.441406 -27.71875 18.253906 -27.320312 19.609375 -26.53125 C 20.441406 -27.75 20.925781 -29.15625 21.0625 -30.75 L 21.578125 -31.0625 L 26.484375 -29.859375 C 26.335938 -28.554688 25.957031 -27.46875 25.34375 -26.59375 C 24.738281 -25.71875 23.796875 -24.929688 22.515625 -24.234375 L 22.515625 -23.703125 C 24.046875 -22.347656 24.8125 -20.460938 24.8125 -18.046875 C 24.8125 -16.367188 24.390625 -14.863281 23.546875 -13.53125 C 22.710938 -12.207031 21.492188 -11.15625 19.890625 -10.375 C 18.285156 -9.601562 16.378906 -9.21875 14.171875 -9.21875 L 13.140625 -9.25 C 12.484375 -9.28125 12.023438 -9.296875 11.765625 -9.296875 C 11.140625 -9.296875 10.648438 -9.125 10.296875 -8.78125 C 9.941406 -8.445312 9.765625 -8.019531 9.765625 -7.5 C 9.765625 -6.925781 9.992188 -6.476562 10.453125 -6.15625 C 10.910156 -5.832031 11.585938 -5.65625 12.484375 -5.625 L 18.5625 -5.40625 C 24.582031 -5.21875 27.59375 -2.625 27.59375 2.375 C 27.59375 4.125 27.144531 5.6875 26.25 7.0625 C 25.351562 8.4375 23.898438 9.523438 21.890625 10.328125 C 19.890625 11.140625 17.296875 11.546875 14.109375 11.546875 Z M 14.171875 -14 C 15.492188 -14 16.523438 -14.382812 17.265625 -15.15625 C 18.003906 -15.9375 18.375 -17.039062 18.375 -18.46875 C 18.375 -19.894531 18.003906 -20.988281 17.265625 -21.75 C 16.523438 -22.519531 15.492188 -22.90625 14.171875 -22.90625 C 12.847656 -22.90625 11.820312 -22.519531 11.09375 -21.75 C 10.375 -20.988281 10.015625 -19.894531 10.015625 -18.46875 C 10.015625 -17.019531 10.375 -15.910156 11.09375 -15.140625 C 11.820312 -14.378906 12.847656 -14 14.171875 -14 Z M 14.109375 6.578125 C 16.441406 6.578125 18.132812 6.25 19.1875 5.59375 C 20.25 4.9375 20.78125 4.082031 20.78125 3.03125 C 20.78125 2.175781 20.507812 1.546875 19.96875 1.140625 C 19.425781 0.742188 18.566406 0.53125 17.390625 0.5 L 12.015625 0.25 C 11.828125 0.25 11.65625 0.238281 11.5 0.21875 C 11.34375 0.207031 11.191406 0.203125 11.046875 0.203125 C 9.898438 0.203125 9.023438 0.445312 8.421875 0.9375 C 7.816406 1.425781 7.515625 2.109375 7.515625 2.984375 C 7.515625 4.128906 8.066406 5.015625 9.171875 5.640625 C 10.273438 6.265625 11.921875 6.578125 14.109375 6.578125 Z M 14.109375 6.578125 "/></g></g></g><g fill="#181c31" fill-opacity="1"><g transform="translate(433.787737, 108.974913)"><g><path d="M 7.328125 -30.453125 C 6.085938 -30.453125 5.082031 -30.828125 4.3125 -31.578125 C 3.539062 -32.328125 3.15625 -33.289062 3.15625 -34.46875 C 3.15625 -35.632812 3.539062 -36.59375 4.3125 -37.34375 C 5.082031 -38.09375 6.085938 -38.46875 7.328125 -38.46875 C 8.148438 -38.46875 8.878906 -38.296875 9.515625 -37.953125 C 10.160156 -37.609375 10.660156 -37.132812 11.015625 -36.53125 C 11.367188 -35.925781 11.546875 -35.238281 11.546875 -34.46875 C 11.546875 -33.695312 11.367188 -33.003906 11.015625 -32.390625 C 10.660156 -31.785156 10.160156 -31.3125 9.515625 -30.96875 C 8.878906 -30.625 8.148438 -30.453125 7.328125 -30.453125 Z M 3.921875 0 L 3.921875 -27.203125 L 10.75 -27.203125 L 10.75 0 Z M 3.921875 0 "/></g></g></g><g fill="#181c31" fill-opacity="1"><g transform="translate(449.999047, 108.974913)"><g><path d="M 26.875 -12.0625 L 9.390625 -12.0625 C 9.585938 -9.6875 10.257812 -7.960938 11.40625 -6.890625 C 12.5625 -5.816406 14.132812 -5.28125 16.125 -5.28125 C 17.6875 -5.28125 18.953125 -5.570312 19.921875 -6.15625 C 20.890625 -6.738281 21.671875 -7.617188 22.265625 -8.796875 L 22.78125 -8.796875 L 27.328125 -5.890625 C 26.429688 -3.984375 25.085938 -2.4375 23.296875 -1.25 C 21.503906 -0.0703125 19.113281 0.515625 16.125 0.515625 C 13.3125 0.515625 10.878906 -0.015625 8.828125 -1.078125 C 6.785156 -2.148438 5.207031 -3.742188 4.09375 -5.859375 C 2.988281 -7.972656 2.4375 -10.550781 2.4375 -13.59375 C 2.4375 -16.675781 3.019531 -19.273438 4.1875 -21.390625 C 5.351562 -23.515625 6.929688 -25.097656 8.921875 -26.140625 C 10.910156 -27.191406 13.148438 -27.71875 15.640625 -27.71875 C 19.484375 -27.71875 22.425781 -26.695312 24.46875 -24.65625 C 26.519531 -22.613281 27.546875 -19.625 27.546875 -15.6875 C 27.546875 -14.25 27.492188 -13.140625 27.390625 -12.359375 Z M 21.015625 -16.46875 C 20.941406 -18.539062 20.457031 -20.050781 19.5625 -21 C 18.664062 -21.945312 17.359375 -22.421875 15.640625 -22.421875 C 12.179688 -22.421875 10.148438 -20.4375 9.546875 -16.46875 Z M 21.015625 -16.46875 "/></g></g></g><g fill="#181c31" fill-opacity="1"><g transform="translate(481.127433, 108.974913)"><g><path d="M 12.71875 0.515625 C 10.863281 0.515625 9.160156 0.296875 7.609375 -0.140625 C 6.066406 -0.578125 4.75 -1.175781 3.65625 -1.9375 C 2.5625 -2.695312 1.753906 -3.570312 1.234375 -4.5625 L 5.03125 -8.65625 L 5.546875 -8.65625 C 6.453125 -7.4375 7.519531 -6.519531 8.75 -5.90625 C 9.988281 -5.300781 11.328125 -5 12.765625 -5 C 14.097656 -5 15.101562 -5.238281 15.78125 -5.71875 C 16.457031 -6.195312 16.796875 -6.878906 16.796875 -7.765625 C 16.796875 -8.453125 16.550781 -9.03125 16.0625 -9.5 C 15.582031 -9.96875 14.796875 -10.335938 13.703125 -10.609375 L 10.109375 -11.46875 C 7.410156 -12.101562 5.441406 -13.082031 4.203125 -14.40625 C 2.960938 -15.726562 2.34375 -17.410156 2.34375 -19.453125 C 2.34375 -21.148438 2.773438 -22.625 3.640625 -23.875 C 4.503906 -25.125 5.71875 -26.078125 7.28125 -26.734375 C 8.851562 -27.390625 10.679688 -27.71875 12.765625 -27.71875 C 15.222656 -27.71875 17.253906 -27.363281 18.859375 -26.65625 C 20.472656 -25.945312 21.734375 -25 22.640625 -23.8125 L 18.984375 -19.875 L 18.5 -19.875 C 17.738281 -20.726562 16.882812 -21.351562 15.9375 -21.75 C 15 -22.144531 13.941406 -22.34375 12.765625 -22.34375 C 10.078125 -22.34375 8.734375 -21.503906 8.734375 -19.828125 C 8.734375 -19.117188 8.984375 -18.539062 9.484375 -18.09375 C 9.984375 -17.65625 10.863281 -17.296875 12.125 -17.015625 L 15.484375 -16.28125 C 18.242188 -15.6875 20.257812 -14.734375 21.53125 -13.421875 C 22.8125 -12.117188 23.453125 -10.363281 23.453125 -8.15625 C 23.453125 -6.4375 23.023438 -4.914062 22.171875 -3.59375 C 21.316406 -2.28125 20.082031 -1.265625 18.46875 -0.546875 C 16.851562 0.160156 14.9375 0.515625 12.71875 0.515625 Z M 12.71875 0.515625 "/></g></g></g><path fill="#006bff" d="M 132.199219 61.910156 L 94.308594 24.019531 C 89.324219 19.03125 81.238281 19.03125 76.246094 24.019531 L 75.890625 24.375 L 94.660156 43.144531 L 66.507812 71.300781 L 75.890625 80.683594 L 104.042969 52.527344 L 122.816406 71.300781 L 118.121094 75.988281 L 127.503906 85.371094 L 132.199219 80.679688 C 137.382812 75.496094 137.382812 67.097656 132.199219 61.910156 Z M 132.199219 61.910156 " fill-opacity="1" fill-rule="nonzero"/><path fill="#006bff" d="M 89.964844 75.988281 L 104.042969 90.066406 L 85.273438 108.835938 L 47.734375 71.300781 L 80.582031 38.453125 L 71.199219 29.066406 L 38.351562 61.910156 C 32.875 66.96875 32.875 75.625 38.351562 80.683594 L 76.246094 118.578125 C 81.230469 123.5625 89.316406 123.5625 94.308594 118.578125 L 122.820312 90.066406 L 99.359375 66.605469 Z M 89.964844 75.988281 " fill-opacity="1" fill-rule="nonzero"/></svg>